<svg xmlns="http://www.w3.org/2000/svg" version="1.1" xmlns:xlink="http://www.w3.org/1999/xlink" width="1000" height="1000"><g clip-path="url(#SvgjsClipPath1091)"><rect width="1000" height="1000" fill="#ffffff"></rect><g transform="matrix(3.1920553289590354,0,0,3.1920553289590354,50,327.48536974640894)"><svg xmlns="http://www.w3.org/2000/svg" version="1.1" xmlns:xlink="http://www.w3.org/1999/xlink" width="281.95" height="108.09"><svg id="_Слой_1" xmlns="http://www.w3.org/2000/svg" viewBox="0 0 281.95 108.09"><defs><style>.cls-1{fill:#f7f4ec;}.cls-2{fill:#282929;}.cls-3{fill:#e24412;}</style><clipPath id="SvgjsClipPath1091"><rect width="1000" height="1000" x="0" y="0" rx="500" ry="500"></rect></clipPath></defs><g><path class="cls-2" d="m48.83,11.49c2.98,2.88,4.64,6.15,4.97,9.82h-5.7c-.63-2.78-1.9-4.99-3.8-6.61-1.9-1.63-4.56-2.44-7.98-2.44-4.18,0-7.55,1.5-10.12,4.49s-3.85,7.57-3.85,13.75c0,5.06,1.16,9.16,3.48,12.31s5.78,4.72,10.38,4.72c4.23,0,7.46-1.66,9.67-4.97,1.17-1.74,2.05-4.04,2.63-6.88h5.7c-.5,4.55-2.17,8.36-5,11.43-3.39,3.7-7.96,5.55-13.71,5.55-4.96,0-9.12-1.52-12.49-4.56-4.44-4.02-6.65-10.22-6.65-18.62,0-6.37,1.67-11.6,5-15.67,3.6-4.43,8.57-6.65,14.9-6.65,5.4,0,9.6,1.44,12.58,4.32h0Z"></path><path class="cls-2" d="m92.51,14.52c2.86,3.82,4.29,8.71,4.29,14.67,0,6.45-1.64,11.8-4.91,16.08-3.84,5.02-9.32,7.52-16.43,7.52-6.64,0-11.86-2.19-15.66-6.58-3.39-4.23-5.08-9.58-5.08-16.05,0-5.84,1.45-10.83,4.35-14.99,3.72-5.33,9.23-7.99,16.52-7.99s13.26,2.45,16.93,7.35h0Zm-5.16,27.51c2.3-3.7,3.45-7.95,3.45-12.75,0-5.08-1.33-9.17-3.98-12.27-2.66-3.1-6.29-4.65-10.89-4.65s-8.11,1.54-10.93,4.6c-2.82,3.07-4.23,7.59-4.23,13.57,0,4.79,1.21,8.82,3.63,12.1,2.42,3.29,6.34,4.93,11.77,4.93s8.88-1.85,11.18-5.54h0Z"></path><path class="cls-2" d="m98.8,8.34h8.38l12.41,36.5,12.33-36.5h8.32v43.17h-5.58v-25.48c0-.88.02-2.34.06-4.38.04-2.04.06-4.22.06-6.55l-12.33,36.41h-5.8l-12.44-36.41v1.32c0,1.06.03,2.67.09,4.83.06,2.17.09,3.76.09,4.78v25.48h-5.58V8.34h0Z"></path><path class="cls-2" d="m144.12,8.34h8.38l12.41,36.5,12.33-36.5h8.32v43.17h-5.58v-25.48c0-.88.02-2.34.06-4.38.04-2.04.06-4.22.06-6.55l-12.33,36.41h-5.8l-12.44-36.41v1.32c0,1.06.03,2.67.09,4.83.06,2.17.09,3.76.09,4.78v25.48h-5.58V8.34h-.01Z"></path><path class="cls-2" d="m225.16,14.52c2.86,3.82,4.29,8.71,4.29,14.67,0,6.45-1.64,11.8-4.91,16.08-3.84,5.02-9.32,7.52-16.43,7.52-6.64,0-11.86-2.19-15.66-6.58-3.39-4.23-5.08-9.58-5.08-16.05,0-5.84,1.45-10.83,4.35-14.99,3.72-5.33,9.23-7.99,16.52-7.99s13.26,2.45,16.93,7.35h-.01Zm-5.16,27.51c2.3-3.7,3.45-7.95,3.45-12.75,0-5.08-1.33-9.17-3.98-12.27-2.66-3.1-6.29-4.65-10.89-4.65s-8.11,1.54-10.93,4.6c-2.82,3.07-4.23,7.59-4.23,13.57,0,4.79,1.21,8.82,3.63,12.1,2.42,3.29,6.34,4.93,11.77,4.93s8.88-1.85,11.18-5.54h0Z"></path><path class="cls-2" d="m231.6,8.34h6.89l21.53,34.88V8.34h5.58v43.17h-6.57l-21.85-34.84v34.84h-5.58V8.34Z"></path></g><g><path class="cls-3" d="m247.14,38.11l-56.42,6.63c.2,1.67-.96,3.17-2.6,3.45-1.66.11-3.13-1.08-3.33-2.75l-56.42,6.63c.25,2.16-1.29,4.11-3.45,4.37l4.82,41.05c2.16-.25,4.11,1.29,4.37,3.45l56.42-6.63c-.2-1.67.96-3.17,2.6-3.45,1.66-.11,3.13,1.08,3.33,2.75l56.42-6.63c-.25-2.16,1.29-4.11,3.45-4.37l-4.82-41.05c-2.16.25-4.11-1.29-4.37-3.45h0Z"></path><g><path class="cls-1" d="m145.14,62.02c-1.1,2.92-1.78,5.06-2.05,6.41-.41,2.05-.46,4.38-.16,6.97.31,2.62.96,4.97,1.94,7.06.61,1.29,1.73,3.11,3.35,5.46l-1.64.19c-1.56-1.91-2.53-3.12-2.92-3.66-.38-.53-.82-1.26-1.3-2.2-.66-1.28-1.18-2.67-1.56-4.16-.19-.78-.33-1.52-.41-2.23-.31-2.68-.17-5.11.42-7.29.38-1.39,1.26-3.51,2.63-6.36l1.69-.2h0Z"></path><path class="cls-1" d="m147.53,62.07l2.35-.28,1.36,11.56,5.53-6.9,3.12-.37-4.95,6.05,6.96,8.43-3.12.37-5.43-6.85-1.78,2.17.64,5.45-2.35.28-2.34-19.92h0Z"></path><path class="cls-1" d="m161.05,60.48l2.48-.29.32,2.77-2.48.29-.32-2.77Zm.64,5.47l2.48-.29,1.7,14.45-2.48.29-1.7-14.45h0Z"></path><path class="cls-1" d="m167.45,61.09l2.47-.29.48,4.05,2.32-.27.23,1.99-2.32.27,1.11,9.48c.06.51.27.82.63.96.2.08.52.09.97.04.12,0,.24-.03.38-.05.13-.02.29-.06.47-.1l.23,1.94c-.27.12-.56.21-.85.28-.3.07-.62.13-.98.17-1.14.13-1.95-.07-2.42-.6-.48-.54-.77-1.27-.88-2.2l-1.13-9.61-1.97.23-.23-1.99,1.97-.23-.48-4.05v-.02Z"></path><path class="cls-1" d="m184.42,63.99c1.12.68,1.9,1.97,2.33,3.89l-2.37.28c-.25-.88-.67-1.58-1.25-2.11s-1.45-.73-2.58-.6c-1.55.18-2.58,1.07-3.07,2.67-.32,1.04-.39,2.28-.22,3.72.17,1.45.62,2.64,1.35,3.56s1.76,1.3,3.08,1.15c1.01-.12,1.78-.52,2.3-1.21s.83-1.58.93-2.68l2.37-.28c-.04,1.96-.56,3.45-1.54,4.46-.98,1.02-2.32,1.63-4.01,1.82-1.9.22-3.49-.29-4.79-1.55-1.29-1.25-2.06-2.92-2.31-5-.3-2.55.09-4.61,1.16-6.17s2.57-2.46,4.48-2.69c1.64-.19,3.01.05,4.13.72v.02Z"></path><path class="cls-1" d="m187.56,57.3l2.44-.29.87,7.43c.49-.8.95-1.38,1.38-1.73.73-.61,1.68-.98,2.85-1.12,2.11-.25,3.62.32,4.54,1.71.5.76.84,1.85,1,3.28l1.09,9.31-2.51.29-1.07-9.15c-.12-1.07-.35-1.83-.68-2.3-.54-.74-1.41-1.04-2.63-.9-1.01.12-1.89.57-2.63,1.37s-1,2.16-.77,4.09l.9,7.7-2.44.29-2.35-19.98h.01Z"></path><path class="cls-1" d="m212.24,60.35c1.02.37,1.82.91,2.42,1.62.57.68.99,1.49,1.27,2.45.22.65.42,1.71.59,3.17l-10.56,1.24c.22,1.47.7,2.62,1.45,3.43.75.82,1.8,1.15,3.16.99,1.26-.15,2.22-.69,2.88-1.62.36-.54.6-1.14.7-1.81l2.4-.28c0,.54-.14,1.16-.42,1.86s-.62,1.28-1.01,1.75c-.65.81-1.5,1.4-2.56,1.79-.57.21-1.22.36-1.95.45-1.8.21-3.4-.27-4.8-1.44s-2.24-2.94-2.52-5.31c-.27-2.33.13-4.3,1.22-5.9,1.09-1.6,2.64-2.52,4.68-2.76,1.02-.12,2.04,0,3.06.38h-.01Zm1.54,5.59c-.22-1.05-.55-1.87-.98-2.46-.8-1.1-1.98-1.55-3.53-1.37-1.11.13-2,.64-2.65,1.54s-.94,1.97-.83,3.23l8-.94h-.01Z"></path><path class="cls-1" d="m218.25,59.24l2.32-.27.24,2.06c.59-.93,1.24-1.63,1.97-2.09.72-.46,1.56-.75,2.5-.86,2.06-.24,3.54.31,4.43,1.67.49.74.82,1.84.99,3.3l1.09,9.31-2.48.29-1.07-9.15c-.1-.89-.32-1.58-.65-2.1-.54-.85-1.38-1.21-2.52-1.08-.58.07-1.05.18-1.4.34-.65.28-1.19.74-1.62,1.4-.35.53-.56,1.05-.62,1.58s-.04,1.26.07,2.21l.89,7.61-2.44.29-1.71-14.52h0Z"></path><path class="cls-1" d="m234.82,77.76c1.11-2.97,1.79-5.12,2.06-6.45.4-2.02.45-4.33.15-6.94-.31-2.61-.95-4.96-1.94-7.04-.61-1.28-1.73-3.11-3.35-5.46l1.64-.19c1.65,2.06,2.66,3.33,3.01,3.82.36.48.76,1.16,1.21,2.04.57,1.08,1.01,2.16,1.32,3.24s.53,2.13.65,3.15c.31,2.68.17,5.11-.43,7.31-.38,1.41-1.25,3.52-2.62,6.34l-1.69.2v-.02Z"></path></g></g></svg></svg></g></g></svg>