<svg width="200" height="200" viewBox="0 0 200 200" fill="none" xmlns="http://www.w3.org/2000/svg">
<rect width="200" height="200" fill="#E0E0E0"/>
<path d="M41.7598 94.1172L42.0469 92.7988C41.1953 92.7441 40.5371 92.4844 40.0723 92.0195C39.6113 91.5547 39.3809 90.9141 39.3809 90.0977C39.3809 89.3477 39.5352 88.6992 39.8438 88.1523C40.1523 87.6055 40.6094 87.1777 41.2148 86.8691C41.8242 86.5605 42.5586 86.3926 43.418 86.3652L43.6289 85.3105H44.7246L44.5078 86.3652C45.3477 86.4121 46 86.668 46.4648 87.1328C46.9297 87.5938 47.1621 88.2188 47.1621 89.0078C47.1621 89.7422 46.9941 90.3984 46.6582 90.9766C46.3262 91.5547 45.8574 91.998 45.252 92.3066C44.6465 92.6113 43.9414 92.7754 43.1367 92.7988L42.8496 94.1172H41.7598ZM43.3301 91.8906C44.1973 91.8398 44.8691 91.5664 45.3457 91.0703C45.8262 90.5703 46.0664 89.9023 46.0664 89.0664C46.0664 88.5273 45.916 88.1035 45.6152 87.7949C45.3145 87.4824 44.877 87.3145 44.3027 87.291L43.3301 91.8906ZM43.2129 87.291C42.3457 87.2988 41.6719 87.5488 41.1914 88.041C40.7148 88.5293 40.4766 89.1953 40.4766 90.0391C40.4766 90.6133 40.6289 91.0605 40.9336 91.3809C41.2383 91.7012 41.6699 91.8711 42.2285 91.8906L43.2129 87.291ZM52.6406 89.8457C52.6406 89.3965 52.5234 89.0371 52.2891 88.7676C52.0547 88.4941 51.7363 88.3574 51.334 88.3574C50.9199 88.3574 50.5469 88.502 50.2148 88.791C49.8828 89.0801 49.627 89.4805 49.4473 89.9922C49.2676 90.5 49.1777 91.0566 49.1777 91.6621C49.1777 92.1621 49.2969 92.5469 49.5352 92.8164C49.7773 93.0859 50.1211 93.2207 50.5664 93.2207C50.957 93.2207 51.3105 93.082 51.627 92.8047C51.9473 92.5234 52.1953 92.127 52.3711 91.6152C52.5508 91.1035 52.6406 90.5137 52.6406 89.8457ZM53.7246 89.9688C53.7246 90.7109 53.584 91.4082 53.3027 92.0605C53.0215 92.709 52.6387 93.2109 52.1543 93.5664C51.6699 93.918 51.1211 94.0938 50.5078 94.0938C49.7578 94.0938 49.1699 93.8711 48.7441 93.4258C48.3184 92.9805 48.1055 92.3789 48.1055 91.6211C48.1055 90.8711 48.25 90.168 48.5391 89.5117C48.8281 88.8555 49.2129 88.3535 49.6934 88.0059C50.1777 87.6582 50.7207 87.4844 51.3223 87.4844C52.0684 87.4844 52.6543 87.707 53.0801 88.1523C53.5098 88.5938 53.7246 89.1992 53.7246 89.9688ZM58.8516 87.4492C59.293 87.4492 59.6328 87.5762 59.8711 87.8301C60.1133 88.0801 60.2578 88.4297 60.3047 88.8789H60.3516C61.0078 87.9258 61.7441 87.4492 62.5605 87.4492C63.0605 87.4492 63.4453 87.5859 63.7148 87.8594C63.9844 88.1289 64.1191 88.5195 64.1191 89.0312C64.1191 89.375 64.0762 89.7266 63.9902 90.0859L63.1582 94H62.0918L62.959 89.9688C63.0293 89.6016 63.0645 89.3223 63.0645 89.1309C63.0645 88.8887 62.998 88.6953 62.8652 88.5508C62.7363 88.4062 62.5312 88.334 62.25 88.334C61.9453 88.334 61.6445 88.4473 61.3477 88.6738C61.0508 88.8965 60.7852 89.2168 60.5508 89.6348C60.3203 90.0488 60.1465 90.5352 60.0293 91.0938L59.4141 94H58.3594L59.2148 89.9688C59.2852 89.6016 59.3203 89.3379 59.3203 89.1777C59.3203 88.6152 59.0605 88.334 58.541 88.334C58.2207 88.334 57.9102 88.4492 57.6094 88.6797C57.3086 88.9102 57.041 89.2441 56.8066 89.6816C56.5762 90.1152 56.3984 90.6309 56.2734 91.2285L55.6875 94H54.627L55.998 87.5664H56.8594L56.7305 88.7559H56.7891C57.0547 88.4043 57.2832 88.1484 57.4746 87.9883C57.6699 87.8281 57.8809 87.6992 58.1074 87.6016C58.3379 87.5 58.5859 87.4492 58.8516 87.4492ZM69.9023 89.8457C69.9023 89.3965 69.7852 89.0371 69.5508 88.7676C69.3164 88.4941 68.998 88.3574 68.5957 88.3574C68.1816 88.3574 67.8086 88.502 67.4766 88.791C67.1445 89.0801 66.8887 89.4805 66.709 89.9922C66.5293 90.5 66.4395 91.0566 66.4395 91.6621C66.4395 92.1621 66.5586 92.5469 66.7969 92.8164C67.0391 93.0859 67.3828 93.2207 67.8281 93.2207C68.2188 93.2207 68.5723 93.082 68.8887 92.8047C69.209 92.5234 69.457 92.127 69.6328 91.6152C69.8125 91.1035 69.9023 90.5137 69.9023 89.8457ZM70.9863 89.9688C70.9863 90.7109 70.8457 91.4082 70.5645 92.0605C70.2832 92.709 69.9004 93.2109 69.416 93.5664C68.9316 93.918 68.3828 94.0938 67.7695 94.0938C67.0195 94.0938 66.4316 93.8711 66.0059 93.4258C65.5801 92.9805 65.3672 92.3789 65.3672 91.6211C65.3672 90.8711 65.5117 90.168 65.8008 89.5117C66.0898 88.8555 66.4746 88.3535 66.9551 88.0059C67.4395 87.6582 67.9824 87.4844 68.584 87.4844C69.3301 87.4844 69.916 87.707 70.3418 88.1523C70.7715 88.5938 70.9863 89.1992 70.9863 89.9688ZM80.1973 94H79.1426L79.9922 89.9688C80.0742 89.582 80.1152 89.3066 80.1152 89.1426C80.1152 88.8965 80.0469 88.7012 79.9102 88.5566C79.7734 88.4082 79.5566 88.334 79.2598 88.334C78.9238 88.334 78.5957 88.4492 78.2754 88.6797C77.959 88.9102 77.6777 89.2441 77.4316 89.6816C77.1855 90.1152 77 90.6309 76.875 91.2285L76.2891 94H75.2285L76.5996 87.5664H77.4609L77.332 88.7559H77.3906C77.6523 88.4199 77.8867 88.168 78.0938 88C78.3047 87.832 78.5312 87.6992 78.7734 87.6016C79.0195 87.5 79.2793 87.4492 79.5527 87.4492C80.0566 87.4492 80.4512 87.5879 80.7363 87.8652C81.0254 88.1387 81.1699 88.5273 81.1699 89.0312C81.1699 89.3359 81.127 89.6875 81.041 90.0859L80.1973 94ZM86.9531 89.8457C86.9531 89.3965 86.8359 89.0371 86.6016 88.7676C86.3672 88.4941 86.0488 88.3574 85.6465 88.3574C85.2324 88.3574 84.8594 88.502 84.5273 88.791C84.1953 89.0801 83.9395 89.4805 83.7598 89.9922C83.5801 90.5 83.4902 91.0566 83.4902 91.6621C83.4902 92.1621 83.6094 92.5469 83.8477 92.8164C84.0898 93.0859 84.4336 93.2207 84.8789 93.2207C85.2695 93.2207 85.623 93.082 85.9395 92.8047C86.2598 92.5234 86.5078 92.127 86.6836 91.6152C86.8633 91.1035 86.9531 90.5137 86.9531 89.8457ZM88.0371 89.9688C88.0371 90.7109 87.8965 91.4082 87.6152 92.0605C87.334 92.709 86.9512 93.2109 86.4668 93.5664C85.9824 93.918 85.4336 94.0938 84.8203 94.0938C84.0703 94.0938 83.4824 93.8711 83.0566 93.4258C82.6309 92.9805 82.418 92.3789 82.418 91.6211C82.418 90.8711 82.5625 90.168 82.8516 89.5117C83.1406 88.8555 83.5254 88.3535 84.0059 88.0059C84.4902 87.6582 85.0332 87.4844 85.6348 87.4844C86.3809 87.4844 86.9668 87.707 87.3926 88.1523C87.8223 88.5938 88.0371 89.1992 88.0371 89.9688ZM93.6797 87.5664H95.0039L91.8223 90.748L93.9668 94H92.707L90.668 90.7949L90 94H88.9395L90.2988 87.5664H91.3418L90.6797 90.666L93.6797 87.5664ZM96.0762 87.5664H97.1426L96.2754 91.6094C96.2051 91.9609 96.1699 92.2305 96.1699 92.418C96.1699 92.9688 96.4492 93.2441 97.0078 93.2441C97.3477 93.2441 97.6758 93.1289 97.9922 92.8984C98.3125 92.668 98.5977 92.334 98.8477 91.8965C99.0977 91.4551 99.2852 90.9355 99.4102 90.3379L99.9961 87.5664H101.039L99.6738 94H98.8066L98.9414 92.8105H98.8828C98.5312 93.2715 98.1777 93.6055 97.8223 93.8125C97.4668 94.0156 97.0957 94.1172 96.709 94.1172C96.209 94.1172 95.8164 93.9785 95.5312 93.7012C95.2461 93.4199 95.1035 93.0273 95.1035 92.5234C95.1035 92.2734 95.1465 91.9297 95.2324 91.4922L96.0762 87.5664ZM111.164 87.5664L110.297 91.6094C110.227 91.9609 110.191 92.2227 110.191 92.3945C110.191 92.6641 110.25 92.8711 110.367 93.0156C110.488 93.1602 110.689 93.2324 110.971 93.2324C111.295 93.2324 111.607 93.1172 111.908 92.8867C112.209 92.6523 112.475 92.3203 112.705 91.8906C112.936 91.457 113.113 90.9395 113.238 90.3379L113.824 87.5664H114.885L113.924 92.1016C113.865 92.4336 113.836 92.6699 113.836 92.8105C113.836 92.959 113.875 93.0723 113.953 93.1504C114.035 93.2285 114.145 93.2676 114.281 93.2676C114.383 93.2676 114.473 93.2578 114.551 93.2383C114.629 93.2148 114.695 93.1973 114.75 93.1855L114.064 96.2324H113.01L113.479 94.082C113.236 94.0156 113.057 93.8867 112.939 93.6953C112.826 93.5 112.766 93.2129 112.758 92.834H112.723C112.129 93.6895 111.441 94.1172 110.66 94.1172C110.219 94.1172 109.877 93.9922 109.635 93.7422C109.396 93.4883 109.254 93.1387 109.207 92.6934H109.16C108.508 93.6426 107.771 94.1172 106.951 94.1172C106.451 94.1172 106.066 93.9824 105.797 93.7129C105.527 93.4395 105.393 93.0469 105.393 92.5352C105.393 92.2891 105.436 91.9375 105.521 91.4805L106.348 87.5664H107.42L106.564 91.6094C106.486 92 106.447 92.2773 106.447 92.4414C106.447 92.6836 106.512 92.877 106.641 93.0215C106.773 93.1621 106.98 93.2324 107.262 93.2324C107.566 93.2324 107.869 93.1191 108.17 92.8926C108.475 92.6621 108.74 92.3398 108.967 91.9258C109.197 91.5117 109.369 91.0273 109.482 90.4727L110.109 87.5664H111.164ZM120.562 89.8457C120.562 89.3965 120.445 89.0371 120.211 88.7676C119.977 88.4941 119.658 88.3574 119.256 88.3574C118.842 88.3574 118.469 88.502 118.137 88.791C117.805 89.0801 117.549 89.4805 117.369 89.9922C117.189 90.5 117.1 91.0566 117.1 91.6621C117.1 92.1621 117.219 92.5469 117.457 92.8164C117.699 93.0859 118.043 93.2207 118.488 93.2207C118.879 93.2207 119.232 93.082 119.549 92.8047C119.869 92.5234 120.117 92.127 120.293 91.6152C120.473 91.1035 120.562 90.5137 120.562 89.8457ZM121.646 89.9688C121.646 90.7109 121.506 91.4082 121.225 92.0605C120.943 92.709 120.561 93.2109 120.076 93.5664C119.592 93.918 119.043 94.0938 118.43 94.0938C117.68 94.0938 117.092 93.8711 116.666 93.4258C116.24 92.9805 116.027 92.3789 116.027 91.6211C116.027 90.8711 116.172 90.168 116.461 89.5117C116.75 88.8555 117.135 88.3535 117.615 88.0059C118.1 87.6582 118.643 87.4844 119.244 87.4844C119.99 87.4844 120.576 87.707 121.002 88.1523C121.432 88.5938 121.646 89.1992 121.646 89.9688ZM128.303 87.5664L127.752 90.2441H130.775L131.35 87.5664H132.404L131.051 94H129.984L130.582 91.1172H127.559L126.949 94H125.889L127.26 87.5664H128.303ZM136.506 88.3223C136.104 88.3223 135.725 88.5117 135.369 88.8906C135.014 89.2656 134.756 89.7559 134.596 90.3613H134.684C135.535 90.3613 136.195 90.248 136.664 90.0215C137.133 89.7949 137.367 89.4648 137.367 89.0312C137.367 88.8242 137.297 88.6543 137.156 88.5215C137.016 88.3887 136.799 88.3223 136.506 88.3223ZM135.68 94.1172C134.953 94.1172 134.383 93.9043 133.969 93.4785C133.555 93.0488 133.348 92.4551 133.348 91.6973C133.348 90.9629 133.49 90.2617 133.775 89.5938C134.064 88.9258 134.453 88.4023 134.941 88.0234C135.43 87.6406 135.971 87.4492 136.564 87.4492C137.174 87.4492 137.633 87.582 137.941 87.8477C138.25 88.1094 138.404 88.4766 138.404 88.9492C138.404 89.6602 138.076 90.2168 137.42 90.6191C136.764 91.0176 135.838 91.2168 134.643 91.2168H134.443L134.42 91.6621C134.42 92.1543 134.537 92.541 134.771 92.8223C135.01 93.1035 135.375 93.2441 135.867 93.2441C136.168 93.2441 136.455 93.2012 136.729 93.1152C137.006 93.0293 137.303 92.9082 137.619 92.752V93.6543C137.232 93.834 136.895 93.9551 136.605 94.0176C136.316 94.084 136.008 94.1172 135.68 94.1172ZM145.576 88.8789C145.51 89.0312 145.277 89.4453 144.879 90.1211L142.652 94H141.867L141.246 90.1211C141.168 89.582 141.123 89.1719 141.111 88.8906L140.021 94H139.096L140.467 87.5664H141.668L142.312 91.6855C142.398 92.3066 142.447 92.7266 142.459 92.9453C142.592 92.6445 142.832 92.1914 143.18 91.5859L145.506 87.5664H146.801L145.424 94H144.486L145.576 88.8789ZM149.467 94.1172C148.932 94.1172 148.508 93.9258 148.195 93.543C147.883 93.1602 147.727 92.6211 147.727 91.9258C147.727 91.125 147.863 90.3789 148.137 89.6875C148.414 88.9922 148.795 88.4453 149.279 88.0469C149.764 87.6484 150.299 87.4492 150.885 87.4492C151.248 87.4492 151.566 87.5449 151.84 87.7363C152.117 87.9277 152.338 88.2031 152.502 88.5625H152.566L152.947 87.5664H153.75L152.385 94H151.547L151.699 92.8105H151.652C150.977 93.6816 150.248 94.1172 149.467 94.1172ZM149.818 93.2441C150.186 93.2441 150.553 93.0684 150.92 92.7168C151.291 92.3652 151.588 91.9082 151.811 91.3457C152.033 90.7793 152.145 90.2031 152.145 89.6172C152.145 89.2344 152.039 88.9258 151.828 88.6914C151.617 88.4531 151.338 88.334 150.99 88.334C150.596 88.334 150.229 88.5 149.889 88.832C149.553 89.1602 149.289 89.6035 149.098 90.1621C148.906 90.7207 148.811 91.3164 148.811 91.9492C148.811 92.3828 148.898 92.707 149.074 92.9219C149.25 93.1367 149.498 93.2441 149.818 93.2441ZM156.938 94.1172C156.18 94.1172 155.592 93.9082 155.174 93.4902C154.756 93.0723 154.547 92.4824 154.547 91.7207C154.547 90.9355 154.693 90.2051 154.986 89.5293C155.283 88.8496 155.684 88.334 156.188 87.9824C156.695 87.627 157.27 87.4492 157.91 87.4492C158.484 87.4492 159.016 87.5527 159.504 87.7598L159.205 88.6387C158.756 88.4355 158.328 88.334 157.922 88.334C157.441 88.334 157.018 88.502 156.65 88.8379C156.287 89.1699 156.014 89.6426 155.83 90.2559H158.531L158.326 91.1465H155.643C155.627 91.2715 155.619 91.459 155.619 91.709C155.619 92.1934 155.746 92.5703 156 92.8398C156.258 93.1094 156.605 93.2441 157.043 93.2441C157.266 93.2441 157.488 93.2188 157.711 93.168C157.938 93.1172 158.23 93.0098 158.59 92.8457V93.7363C158.09 93.9902 157.539 94.1172 156.938 94.1172ZM161.232 92.6055L161.279 92.7402C160.896 93.5645 160.369 94.5 159.697 95.5469H158.895C159.254 94.7344 159.65 93.7539 160.084 92.6055H161.232ZM23.3613 114.117C22.8262 114.117 22.4023 113.926 22.0898 113.543C21.7773 113.16 21.6211 112.621 21.6211 111.926C21.6211 111.125 21.7578 110.379 22.0312 109.688C22.3086 108.992 22.6895 108.445 23.1738 108.047C23.6582 107.648 24.1934 107.449 24.7793 107.449C25.1426 107.449 25.4609 107.545 25.7344 107.736C26.0117 107.928 26.2324 108.203 26.3965 108.562H26.4609L26.8418 107.566H27.6445L26.2793 114H25.4414L25.5938 112.811H25.5469C24.8711 113.682 24.1426 114.117 23.3613 114.117ZM23.7129 113.244C24.0801 113.244 24.4473 113.068 24.8145 112.717C25.1855 112.365 25.4824 111.908 25.7051 111.346C25.9277 110.779 26.0391 110.203 26.0391 109.617C26.0391 109.234 25.9336 108.926 25.7227 108.691C25.5117 108.453 25.2324 108.334 24.8848 108.334C24.4902 108.334 24.123 108.5 23.7832 108.832C23.4473 109.16 23.1836 109.604 22.9922 110.162C22.8008 110.721 22.7051 111.316 22.7051 111.949C22.7051 112.383 22.793 112.707 22.9688 112.922C23.1445 113.137 23.3926 113.244 23.7129 113.244ZM32.666 114H31.5996L32.8125 108.445C32.668 108.414 32.5156 108.398 32.3555 108.398C32.0586 108.398 31.8184 108.457 31.6348 108.574C31.4512 108.688 31.2812 108.885 31.125 109.166C30.9727 109.443 30.7305 110.059 30.3984 111.012C30.043 112.02 29.7578 112.699 29.543 113.051C29.3281 113.398 29.0859 113.658 28.8164 113.83C28.5469 113.998 28.2188 114.082 27.832 114.082C27.6367 114.082 27.4727 114.055 27.3398 114V113.086C27.4414 113.137 27.5723 113.162 27.7324 113.162C27.9629 113.162 28.1641 113.094 28.3359 112.957C28.5078 112.82 28.6719 112.602 28.8281 112.301C28.9883 111.996 29.2031 111.447 29.4727 110.654C29.6602 110.119 29.8359 109.654 30 109.26C30.1641 108.865 30.3555 108.539 30.5742 108.281C30.793 108.02 31.0547 107.826 31.3594 107.701C31.668 107.572 32.0566 107.508 32.5254 107.508C33.0566 107.508 33.5527 107.576 34.0137 107.713L32.666 114ZM38.127 108.322C37.7246 108.322 37.3457 108.512 36.9902 108.891C36.6348 109.266 36.377 109.756 36.2168 110.361H36.3047C37.1562 110.361 37.8164 110.248 38.2852 110.021C38.7539 109.795 38.9883 109.465 38.9883 109.031C38.9883 108.824 38.918 108.654 38.7773 108.521C38.6367 108.389 38.4199 108.322 38.127 108.322ZM37.3008 114.117C36.5742 114.117 36.0039 113.904 35.5898 113.479C35.1758 113.049 34.9688 112.455 34.9688 111.697C34.9688 110.963 35.1113 110.262 35.3965 109.594C35.6855 108.926 36.0742 108.402 36.5625 108.023C37.0508 107.641 37.5918 107.449 38.1855 107.449C38.7949 107.449 39.2539 107.582 39.5625 107.848C39.8711 108.109 40.0254 108.477 40.0254 108.949C40.0254 109.66 39.6973 110.217 39.041 110.619C38.3848 111.018 37.459 111.217 36.2637 111.217H36.0645L36.041 111.662C36.041 112.154 36.1582 112.541 36.3926 112.822C36.6309 113.104 36.9961 113.244 37.4883 113.244C37.7891 113.244 38.0762 113.201 38.3496 113.115C38.627 113.029 38.9238 112.908 39.2402 112.752V113.654C38.8535 113.834 38.5156 113.955 38.2266 114.018C37.9375 114.084 37.6289 114.117 37.3008 114.117ZM49.0254 114H47.9707L48.8203 109.969C48.9023 109.582 48.9434 109.307 48.9434 109.143C48.9434 108.896 48.875 108.701 48.7383 108.557C48.6016 108.408 48.3848 108.334 48.0879 108.334C47.752 108.334 47.4238 108.449 47.1035 108.68C46.7871 108.91 46.5059 109.244 46.2598 109.682C46.0137 110.115 45.8281 110.631 45.7031 111.229L45.1172 114H44.0566L45.4277 107.566H46.2891L46.1602 108.756H46.2188C46.4805 108.42 46.7148 108.168 46.9219 108C47.1328 107.832 47.3594 107.699 47.6016 107.602C47.8477 107.5 48.1074 107.449 48.3809 107.449C48.8848 107.449 49.2793 107.588 49.5645 107.865C49.8535 108.139 49.998 108.527 49.998 109.031C49.998 109.336 49.9551 109.688 49.8691 110.086L49.0254 114ZM55.2891 107.461C55.8438 107.461 56.2715 107.656 56.5723 108.047C56.877 108.438 57.0293 108.975 57.0293 109.658C57.0293 110.49 56.8906 111.252 56.6133 111.943C56.3398 112.631 55.9668 113.166 55.4941 113.549C55.0254 113.928 54.4941 114.117 53.9004 114.117C53.1504 114.117 52.6016 113.75 52.2539 113.016H52.1953C52.1328 113.551 52.0801 113.914 52.0371 114.105L51.4512 116.883H50.4082L52.377 107.566H53.2383L53.0977 108.768H53.1445C53.5156 108.307 53.875 107.975 54.2227 107.771C54.5742 107.564 54.9297 107.461 55.2891 107.461ZM54.9316 108.334C54.5684 108.334 54.1992 108.512 53.8242 108.867C53.4531 109.223 53.1543 109.682 52.9277 110.244C52.7051 110.807 52.5938 111.375 52.5938 111.949C52.5938 112.355 52.6973 112.674 52.9043 112.904C53.1152 113.131 53.4199 113.244 53.8184 113.244C54.2012 113.244 54.5566 113.084 54.8848 112.764C55.2129 112.443 55.4727 112 55.6641 111.434C55.8555 110.863 55.9512 110.264 55.9512 109.635C55.9512 108.768 55.6113 108.334 54.9316 108.334ZM62.7305 109.846C62.7305 109.396 62.6133 109.037 62.3789 108.768C62.1445 108.494 61.8262 108.357 61.4238 108.357C61.0098 108.357 60.6367 108.502 60.3047 108.791C59.9727 109.08 59.7168 109.48 59.5371 109.992C59.3574 110.5 59.2676 111.057 59.2676 111.662C59.2676 112.162 59.3867 112.547 59.625 112.816C59.8672 113.086 60.2109 113.221 60.6562 113.221C61.0469 113.221 61.4004 113.082 61.7168 112.805C62.0371 112.523 62.2852 112.127 62.4609 111.615C62.6406 111.104 62.7305 110.514 62.7305 109.846ZM63.8145 109.969C63.8145 110.711 63.6738 111.408 63.3926 112.061C63.1113 112.709 62.7285 113.211 62.2441 113.566C61.7598 113.918 61.2109 114.094 60.5977 114.094C59.8477 114.094 59.2598 113.871 58.834 113.426C58.4082 112.98 58.1953 112.379 58.1953 111.621C58.1953 110.871 58.3398 110.168 58.6289 109.512C58.918 108.855 59.3027 108.354 59.7832 108.006C60.2676 107.658 60.8105 107.484 61.4121 107.484C62.1582 107.484 62.7441 107.707 63.1699 108.152C63.5996 108.594 63.8145 109.199 63.8145 109.969ZM70.7402 108.457C70.7402 109.465 70.5781 110.424 70.2539 111.334C69.9297 112.24 69.4922 112.932 68.9414 113.408C68.3945 113.881 67.7754 114.117 67.084 114.117C66.4121 114.117 65.8887 113.912 65.5137 113.502C65.1426 113.088 64.957 112.514 64.957 111.779C64.957 111.068 65.0918 110.4 65.3613 109.775C65.6348 109.15 65.9941 108.672 66.4395 108.34C66.8887 108.008 67.3906 107.842 67.9453 107.842C68.7344 107.842 69.2949 108.182 69.627 108.861H69.6621L69.6738 108.674V108.527C69.6738 107.543 69.541 106.816 69.2754 106.348C69.0137 105.875 68.6113 105.639 68.0684 105.639C67.6348 105.639 67.2148 105.727 66.8086 105.902L66.5449 105.117C66.7402 105.02 66.9941 104.936 67.3066 104.865C67.623 104.795 67.9199 104.76 68.1973 104.76C69.0527 104.76 69.6895 105.066 70.1074 105.68C70.5293 106.289 70.7402 107.215 70.7402 108.457ZM67.1895 113.232C67.7129 113.232 68.1797 112.941 68.5898 112.359C69 111.777 69.2969 110.996 69.4805 110.016C69.3438 109.574 69.1523 109.238 68.9062 109.008C68.6602 108.777 68.373 108.662 68.0449 108.662C67.6934 108.662 67.3594 108.803 67.043 109.084C66.7305 109.365 66.4824 109.746 66.2988 110.227C66.1191 110.703 66.0293 111.217 66.0293 111.768C66.0293 112.232 66.1289 112.594 66.3281 112.852C66.5273 113.105 66.8145 113.232 67.1895 113.232ZM71.7539 107.566H72.8145L73.2305 110.748C73.2734 111.041 73.3105 111.422 73.3418 111.891C73.373 112.355 73.3887 112.771 73.3887 113.139H73.4238C73.5254 112.881 73.6777 112.531 73.8809 112.09C74.084 111.648 74.2441 111.316 74.3613 111.094L76.2305 107.566H77.3613L73.2773 115.078C72.9258 115.742 72.5664 116.209 72.1992 116.479C71.832 116.748 71.3926 116.883 70.8809 116.883C70.5723 116.883 70.2949 116.842 70.0488 116.76V115.91C70.2949 115.98 70.5527 116.016 70.8223 116.016C71.1426 116.016 71.418 115.914 71.6484 115.711C71.8789 115.512 72.0996 115.221 72.3105 114.838L72.7266 114.094L71.7539 107.566ZM81.8555 107.566H83.1797L79.998 110.748L82.1426 114H80.8828L78.8438 110.795L78.1758 114H77.1152L78.4746 107.566H79.5176L78.8555 110.666L81.8555 107.566ZM87.1758 107.449C87.6172 107.449 87.957 107.576 88.1953 107.83C88.4375 108.08 88.582 108.43 88.6289 108.879H88.6758C89.332 107.926 90.0684 107.449 90.8848 107.449C91.3848 107.449 91.7695 107.586 92.0391 107.859C92.3086 108.129 92.4434 108.52 92.4434 109.031C92.4434 109.375 92.4004 109.727 92.3145 110.086L91.4824 114H90.416L91.2832 109.969C91.3535 109.602 91.3887 109.322 91.3887 109.131C91.3887 108.889 91.3223 108.695 91.1895 108.551C91.0605 108.406 90.8555 108.334 90.5742 108.334C90.2695 108.334 89.9688 108.447 89.6719 108.674C89.375 108.896 89.1094 109.217 88.875 109.635C88.6445 110.049 88.4707 110.535 88.3535 111.094L87.7383 114H86.6836L87.5391 109.969C87.6094 109.602 87.6445 109.338 87.6445 109.178C87.6445 108.615 87.3848 108.334 86.8652 108.334C86.5449 108.334 86.2344 108.449 85.9336 108.68C85.6328 108.91 85.3652 109.244 85.1309 109.682C84.9004 110.115 84.7227 110.631 84.5977 111.229L84.0117 114H82.9512L84.3223 107.566H85.1836L85.0547 108.756H85.1133C85.3789 108.404 85.6074 108.148 85.7988 107.988C85.9941 107.828 86.2051 107.699 86.4316 107.602C86.6621 107.5 86.9102 107.449 87.1758 107.449ZM102.814 108.457C102.814 109.465 102.652 110.424 102.328 111.334C102.004 112.24 101.566 112.932 101.016 113.408C100.469 113.881 99.8496 114.117 99.1582 114.117C98.4863 114.117 97.9629 113.912 97.5879 113.502C97.2168 113.088 97.0312 112.514 97.0312 111.779C97.0312 111.068 97.166 110.4 97.4355 109.775C97.709 109.15 98.0684 108.672 98.5137 108.34C98.9629 108.008 99.4648 107.842 100.02 107.842C100.809 107.842 101.369 108.182 101.701 108.861H101.736L101.748 108.674V108.527C101.748 107.543 101.615 106.816 101.35 106.348C101.088 105.875 100.686 105.639 100.143 105.639C99.709 105.639 99.2891 105.727 98.8828 105.902L98.6191 105.117C98.8145 105.02 99.0684 104.936 99.3809 104.865C99.6973 104.795 99.9941 104.76 100.271 104.76C101.127 104.76 101.764 105.066 102.182 105.68C102.604 106.289 102.814 107.215 102.814 108.457ZM99.2637 113.232C99.7871 113.232 100.254 112.941 100.664 112.359C101.074 111.777 101.371 110.996 101.555 110.016C101.418 109.574 101.227 109.238 100.98 109.008C100.734 108.777 100.447 108.662 100.119 108.662C99.7676 108.662 99.4336 108.803 99.1172 109.084C98.8047 109.365 98.5566 109.746 98.373 110.227C98.1934 110.703 98.1035 111.217 98.1035 111.768C98.1035 112.232 98.2031 112.594 98.4023 112.852C98.6016 113.105 98.8887 113.232 99.2637 113.232ZM103.828 107.566H104.889L105.305 110.748C105.348 111.041 105.385 111.422 105.416 111.891C105.447 112.355 105.463 112.771 105.463 113.139H105.498C105.6 112.881 105.752 112.531 105.955 112.09C106.158 111.648 106.318 111.316 106.436 111.094L108.305 107.566H109.436L105.352 115.078C105 115.742 104.641 116.209 104.273 116.479C103.906 116.748 103.467 116.883 102.955 116.883C102.646 116.883 102.369 116.842 102.123 116.76V115.91C102.369 115.98 102.627 116.016 102.896 116.016C103.217 116.016 103.492 115.914 103.723 115.711C103.953 115.512 104.174 115.221 104.385 114.838L104.801 114.094L103.828 107.566ZM113.414 111.158H112.465C112.258 112.068 111.883 112.789 111.34 113.32C110.797 113.852 110.145 114.117 109.383 114.117C109.105 114.117 108.865 114.086 108.662 114.023L108.82 113.162C109.004 113.217 109.195 113.244 109.395 113.244C109.781 113.244 110.135 113.105 110.455 112.828C110.779 112.551 111.041 112.148 111.24 111.621C111.443 111.094 111.545 110.535 111.545 109.945C111.545 109.426 111.445 109.027 111.246 108.75C111.051 108.473 110.766 108.334 110.391 108.334C110.184 108.334 109.959 108.363 109.717 108.422V107.555C110.057 107.484 110.334 107.449 110.549 107.449C111.221 107.449 111.732 107.662 112.084 108.088C112.436 108.514 112.611 109.125 112.611 109.922C112.611 110.074 112.604 110.217 112.588 110.35H113.572L114.158 107.566H115.131L114.533 110.35H115.477C115.605 109.764 115.82 109.246 116.121 108.797C116.422 108.348 116.773 108.012 117.176 107.789C117.582 107.562 118.025 107.449 118.506 107.449C118.818 107.449 119.094 107.484 119.332 107.555L119.139 108.41C118.971 108.359 118.764 108.334 118.518 108.334C118.131 108.334 117.779 108.473 117.463 108.75C117.15 109.023 116.896 109.422 116.701 109.945C116.51 110.469 116.414 111.027 116.414 111.621C116.414 112.172 116.512 112.58 116.707 112.846C116.902 113.111 117.182 113.244 117.545 113.244C117.764 113.244 117.986 113.213 118.213 113.15V114.023C117.889 114.086 117.617 114.117 117.398 114.117C116.738 114.117 116.229 113.908 115.869 113.49C115.514 113.068 115.336 112.455 115.336 111.65C115.336 111.432 115.344 111.268 115.359 111.158H114.363L113.766 114H112.805L113.414 111.158ZM122.736 108.322C122.334 108.322 121.955 108.512 121.6 108.891C121.244 109.266 120.986 109.756 120.826 110.361H120.914C121.766 110.361 122.426 110.248 122.895 110.021C123.363 109.795 123.598 109.465 123.598 109.031C123.598 108.824 123.527 108.654 123.387 108.521C123.246 108.389 123.029 108.322 122.736 108.322ZM121.91 114.117C121.184 114.117 120.613 113.904 120.199 113.479C119.785 113.049 119.578 112.455 119.578 111.697C119.578 110.963 119.721 110.262 120.006 109.594C120.295 108.926 120.684 108.402 121.172 108.023C121.66 107.641 122.201 107.449 122.795 107.449C123.404 107.449 123.863 107.582 124.172 107.848C124.48 108.109 124.635 108.477 124.635 108.949C124.635 109.66 124.307 110.217 123.65 110.619C122.994 111.018 122.068 111.217 120.873 111.217H120.674L120.65 111.662C120.65 112.154 120.768 112.541 121.002 112.822C121.24 113.104 121.605 113.244 122.098 113.244C122.398 113.244 122.686 113.201 122.959 113.115C123.236 113.029 123.533 112.908 123.85 112.752V113.654C123.463 113.834 123.125 113.955 122.836 114.018C122.547 114.084 122.238 114.117 121.91 114.117ZM131.297 114.117C130.539 114.117 129.951 113.908 129.533 113.49C129.115 113.072 128.906 112.482 128.906 111.721C128.906 110.928 129.049 110.203 129.334 109.547C129.623 108.891 130.021 108.377 130.529 108.006C131.037 107.635 131.617 107.449 132.27 107.449C132.844 107.449 133.375 107.553 133.863 107.76L133.564 108.639C133.115 108.436 132.688 108.334 132.281 108.334C131.852 108.334 131.459 108.484 131.104 108.785C130.752 109.082 130.479 109.488 130.283 110.004C130.088 110.52 129.99 111.088 129.99 111.709C129.99 112.197 130.113 112.576 130.359 112.846C130.609 113.111 130.957 113.244 131.402 113.244C131.688 113.244 131.955 113.205 132.205 113.127C132.455 113.049 132.703 112.955 132.949 112.846V113.736C132.449 113.99 131.898 114.117 131.297 114.117ZM140.584 108.879C140.518 109.031 140.285 109.445 139.887 110.121L137.66 114H136.875L136.254 110.121C136.176 109.582 136.131 109.172 136.119 108.891L135.029 114H134.104L135.475 107.566H136.676L137.32 111.686C137.406 112.307 137.455 112.727 137.467 112.945C137.6 112.645 137.84 112.191 138.188 111.586L140.514 107.566H141.809L140.432 114H139.494L140.584 108.879ZM144.475 114.117C143.939 114.117 143.516 113.926 143.203 113.543C142.891 113.16 142.734 112.621 142.734 111.926C142.734 111.125 142.871 110.379 143.145 109.688C143.422 108.992 143.803 108.445 144.287 108.047C144.771 107.648 145.307 107.449 145.893 107.449C146.256 107.449 146.574 107.545 146.848 107.736C147.125 107.928 147.346 108.203 147.51 108.562H147.574L147.955 107.566H148.758L147.393 114H146.555L146.707 112.811H146.66C145.984 113.682 145.256 114.117 144.475 114.117ZM144.826 113.244C145.193 113.244 145.561 113.068 145.928 112.717C146.299 112.365 146.596 111.908 146.818 111.346C147.041 110.779 147.152 110.203 147.152 109.617C147.152 109.234 147.047 108.926 146.836 108.691C146.625 108.453 146.346 108.334 145.998 108.334C145.604 108.334 145.236 108.5 144.896 108.832C144.561 109.16 144.297 109.604 144.105 110.162C143.914 110.721 143.818 111.316 143.818 111.949C143.818 112.383 143.906 112.707 144.082 112.922C144.258 113.137 144.506 113.244 144.826 113.244ZM151.43 107.566C151.277 108.293 151.158 108.855 151.072 109.254C150.99 109.652 150.957 109.914 150.973 110.039C150.973 110.324 151.041 110.539 151.178 110.684C151.314 110.824 151.537 110.895 151.846 110.895C152.404 110.895 152.881 110.664 153.275 110.203C153.67 109.742 153.959 109.088 154.143 108.24L154.283 107.566H155.338L153.973 114H152.895C153.074 113.152 153.211 112.496 153.305 112.031C153.402 111.562 153.525 111.111 153.674 110.678H153.627C153.361 111.029 153.051 111.301 152.695 111.492C152.344 111.684 151.961 111.779 151.547 111.779C151.004 111.779 150.594 111.641 150.316 111.363C150.043 111.082 149.906 110.674 149.906 110.139C149.906 109.928 149.953 109.562 150.047 109.043L150.363 107.566H151.43ZM158.443 107.566L157.893 110.244H160.916L161.49 107.566H162.545L161.191 114H160.125L160.723 111.117H157.699L157.09 114H156.029L157.4 107.566H158.443ZM164.549 107.566H165.615L164.748 111.609C164.678 111.961 164.643 112.23 164.643 112.418C164.643 112.969 164.922 113.244 165.48 113.244C165.82 113.244 166.148 113.129 166.465 112.898C166.785 112.668 167.07 112.334 167.32 111.896C167.57 111.455 167.758 110.936 167.883 110.338L168.469 107.566H169.512L168.146 114H167.279L167.414 112.811H167.355C167.004 113.271 166.65 113.605 166.295 113.812C165.939 114.016 165.568 114.117 165.182 114.117C164.682 114.117 164.289 113.979 164.004 113.701C163.719 113.42 163.576 113.027 163.576 112.523C163.576 112.273 163.619 111.93 163.705 111.492L164.549 107.566ZM171.498 107.566H172.564L171.697 111.609C171.627 111.961 171.592 112.23 171.592 112.418C171.592 112.969 171.871 113.244 172.43 113.244C172.77 113.244 173.098 113.129 173.414 112.898C173.734 112.668 174.02 112.334 174.27 111.896C174.52 111.455 174.707 110.936 174.832 110.338L175.418 107.566H176.461L175.096 114H174.229L174.363 112.811H174.305C173.953 113.271 173.6 113.605 173.244 113.812C172.889 114.016 172.518 114.117 172.131 114.117C171.631 114.117 171.238 113.979 170.953 113.701C170.668 113.42 170.525 113.027 170.525 112.523C170.525 112.273 170.568 111.93 170.654 111.492L171.498 107.566ZM176.572 104.883C176.334 106.113 175.506 106.729 174.088 106.729C173.467 106.729 172.994 106.607 172.67 106.365C172.35 106.119 172.189 105.756 172.189 105.275C172.189 105.127 172.205 104.996 172.236 104.883H173.162C173.139 105.016 173.127 105.127 173.127 105.217C173.127 105.721 173.467 105.973 174.146 105.973C174.584 105.973 174.912 105.885 175.131 105.709C175.35 105.529 175.494 105.254 175.564 104.883H176.572ZM180.111 105.434L178.518 111.586H177.809L178.828 105.434H180.111ZM177.053 113.52C177.053 113.227 177.135 112.992 177.299 112.816C177.463 112.637 177.682 112.547 177.955 112.547C178.135 112.547 178.281 112.604 178.395 112.717C178.508 112.826 178.564 112.986 178.564 113.197C178.564 113.471 178.484 113.701 178.324 113.889C178.168 114.076 177.957 114.17 177.691 114.17C177.484 114.17 177.326 114.113 177.217 114C177.107 113.887 177.053 113.727 177.053 113.52Z" fill="black"/>
</svg>
