<svg width="24" height="24" viewBox="0 0 24 24" fill="none" xmlns="http://www.w3.org/2000/svg">
<g clip-path="url(#clip0_614_242)">
<line x1="11.6237" y1="15.2138" x2="22.3122" y2="4.68964" stroke="#00973B" stroke-width="2" stroke-linecap="round"/>
<line x1="11.6239" y1="15.2137" x2="7.41427" y2="10.9383" stroke="#00973B" stroke-width="2" stroke-linecap="round"/>
<path d="M22.5149 8.76933C23.2937 11.3041 23.1306 14.0348 22.0558 16.4589C20.9809 18.8829 19.0666 20.8371 16.6652 21.9617C14.2638 23.0863 11.5371 23.3056 8.98681 22.5793C6.43656 21.8529 4.23453 20.2298 2.78609 18.0086C1.33764 15.7875 0.740269 13.1179 1.10395 10.4913C1.46763 7.86472 2.76788 5.45789 4.76533 3.71389C6.76279 1.9699 9.323 1.00614 11.9747 1.00003C14.6263 0.993922 17.1909 1.94588 19.1964 3.68065" stroke="#00973B" stroke-linecap="round"/>
</g>
<defs>
<clipPath id="clip0_614_242">
<rect width="24" height="24" fill="white"/>
</clipPath>
</defs>
</svg>
