<?xml version="1.0" encoding="utf-8"?>
<!-- Generator: Adobe Illustrator 27.5.0, SVG Export Plug-In . SVG Version: 6.00 Build 0)  -->
<svg version="1.1" id="_Слой_1" xmlns="http://www.w3.org/2000/svg" xmlns:xlink="http://www.w3.org/1999/xlink" x="0px"
	 y="0px" viewBox="0 0 172 70" style="enable-background:new 0 0 172 70;" xml:space="preserve">
<style type="text/css">
	.st0{fill:#282929;}
	.st1{fill:#E24412;}
	.st2{fill:#F7F4EC;}
</style>
<g>
	<path class="st0" d="M23.3,6.4c2,2,3.2,4.2,3.4,6.7h-3.9c-0.4-1.9-1.3-3.4-2.6-4.5C18.9,7.5,17.1,7,14.8,7C12,7,9.7,8,7.9,10
		s-2.6,5.1-2.6,9.4c0,3.4,0.8,6.2,2.4,8.4s3.9,3.2,7.1,3.2c2.9,0,5.1-1.1,6.6-3.4c0.8-1.2,1.4-2.7,1.8-4.7H27
		c-0.3,3.1-1.5,5.7-3.4,7.8c-2.3,2.5-5.4,3.8-9.3,3.8c-3.4,0-6.2-1-8.5-3.1c-3-2.7-4.5-7-4.5-12.7c0-4.3,1.1-7.9,3.4-10.7
		c2.4-3,5.8-4.5,10.1-4.5C18.4,3.5,21.3,4.5,23.3,6.4L23.3,6.4L23.3,6.4z"/>
	<path class="st0" d="M53,8.5c1.9,2.6,2.9,5.9,2.9,10c0,4.4-1.1,8-3.3,10.9c-2.6,3.4-6.3,5.1-11.2,5.1c-4.5,0-8.1-1.5-10.7-4.5
		c-2.3-2.9-3.5-6.5-3.5-10.9c0-4,1-7.4,3-10.2c2.5-3.6,6.3-5.4,11.2-5.4S50.5,5.2,53,8.5L53,8.5L53,8.5z M49.5,27.2
		c1.6-2.5,2.3-5.4,2.3-8.7c0-3.5-0.9-6.2-2.7-8.3C47.4,8.1,44.9,7,41.8,7s-5.5,1-7.4,3.1c-1.9,2.1-2.9,5.2-2.9,9.2
		c0,3.3,0.8,6,2.5,8.2c1.6,2.2,4.3,3.4,8,3.4C45.6,31,48,29.7,49.5,27.2L49.5,27.2L49.5,27.2z"/>
	<path class="st0" d="M57.3,4.3H63l8.4,24.8l8.4-24.8h5.7v29.4h-3.8V16.3c0-0.6,0-1.6,0-3c0-1.4,0-2.9,0-4.5l-8.4,24.8h-3.9L61,8.9
		v0.9c0,0.7,0,1.8,0.1,3.3c0,1.5,0.1,2.6,0.1,3.3v17.3h-3.8L57.3,4.3L57.3,4.3L57.3,4.3z"/>
	<path class="st0" d="M88.1,4.3h5.7l8.4,24.8l8.4-24.8h5.7v29.4h-3.8V16.3c0-0.6,0-1.6,0-3c0-1.4,0-2.9,0-4.5l-8.4,24.8h-3.9
		L91.8,8.9v0.9c0,0.7,0,1.8,0.1,3.3c0,1.5,0.1,2.6,0.1,3.3v17.3h-3.8L88.1,4.3L88.1,4.3L88.1,4.3z"/>
	<path class="st0" d="M143.3,8.5c1.9,2.6,2.9,5.9,2.9,10c0,4.4-1.1,8-3.3,10.9c-2.6,3.4-6.3,5.1-11.2,5.1c-4.5,0-8.1-1.5-10.7-4.5
		c-2.3-2.9-3.5-6.5-3.5-10.9c0-4,1-7.4,3-10.2c2.5-3.6,6.3-5.4,11.2-5.4S140.8,5.2,143.3,8.5L143.3,8.5L143.3,8.5z M139.7,27.2
		c1.6-2.5,2.3-5.4,2.3-8.7c0-3.5-0.9-6.2-2.7-8.3C137.6,8.1,135.1,7,132,7c-3.1,0-5.5,1-7.4,3.1c-1.9,2.1-2.9,5.2-2.9,9.2
		c0,3.3,0.8,6,2.5,8.2c1.6,2.2,4.3,3.4,8,3.4C135.8,31,138.2,29.7,139.7,27.2L139.7,27.2L139.7,27.2z"/>
	<path class="st0" d="M147.6,4.3h4.7L167,28V4.3h3.8v29.4h-4.5L151.4,10v23.7h-3.8L147.6,4.3L147.6,4.3z"/>
</g>
<g>
	<path class="st1" d="M158.2,24.5l-38.4,4.5c0.1,1.1-0.7,2.2-1.8,2.3c-1.1,0.1-2.1-0.7-2.3-1.9L77.4,34c0.2,1.5-0.9,2.8-2.3,3
		l3.3,27.9c1.5-0.2,2.8,0.9,3,2.3l38.4-4.5c-0.1-1.1,0.7-2.2,1.8-2.3c1.1-0.1,2.1,0.7,2.3,1.9l38.4-4.5c-0.2-1.5,0.9-2.8,2.3-3
		l-3.3-27.9C159.7,27.1,158.4,26,158.2,24.5L158.2,24.5L158.2,24.5z"/>
	<g>
		<path class="st2" d="M88.8,40.8c-0.7,2-1.2,3.4-1.4,4.4c-0.3,1.4-0.3,3-0.1,4.7c0.2,1.8,0.7,3.4,1.3,4.8c0.4,0.9,1.2,2.1,2.3,3.7
			l-1.1,0.1c-1.1-1.3-1.7-2.1-2-2.5c-0.3-0.4-0.6-0.9-0.9-1.5c-0.4-0.9-0.8-1.8-1.1-2.8c-0.1-0.5-0.2-1-0.3-1.5
			c-0.2-1.8-0.1-3.5,0.3-5c0.3-0.9,0.9-2.4,1.8-4.3L88.8,40.8L88.8,40.8L88.8,40.8z"/>
		<path class="st2" d="M90.5,40.8l1.6-0.2l0.9,7.9l3.8-4.7l2.1-0.3l-3.4,4.1l4.7,5.7l-2.1,0.3L94.4,49l-1.2,1.5l0.4,3.7L92,54.4
			L90.5,40.8L90.5,40.8L90.5,40.8z"/>
		<path class="st2" d="M99.7,39.8l1.7-0.2l0.2,1.9l-1.7,0.2L99.7,39.8z M100.1,43.5l1.7-0.2l1.2,9.8l-1.7,0.2L100.1,43.5L100.1,43.5
			z"/>
		<path class="st2" d="M104,40.2l1.7-0.2l0.3,2.8l1.6-0.2l0.2,1.4l-1.6,0.2l0.8,6.4c0,0.3,0.2,0.6,0.4,0.7c0.1,0.1,0.4,0.1,0.7,0
			c0.1,0,0.2,0,0.3,0c0.1,0,0.2,0,0.3-0.1l0.2,1.3c-0.2,0.1-0.4,0.1-0.6,0.2c-0.2,0-0.4,0.1-0.7,0.1c-0.8,0.1-1.3,0-1.6-0.4
			c-0.3-0.4-0.5-0.9-0.6-1.5l-0.8-6.5l-1.3,0.2l-0.2-1.4l1.3-0.2L104,40.2C104,40.2,104,40.2,104,40.2z"/>
		<path class="st2" d="M115.5,42.1c0.8,0.5,1.3,1.3,1.6,2.6l-1.6,0.2c-0.2-0.6-0.5-1.1-0.9-1.4c-0.4-0.4-1-0.5-1.8-0.4
			c-1.1,0.1-1.8,0.7-2.1,1.8c-0.2,0.7-0.3,1.6-0.1,2.5c0.1,1,0.4,1.8,0.9,2.4c0.5,0.6,1.2,0.9,2.1,0.8c0.7-0.1,1.2-0.4,1.6-0.8
			c0.4-0.5,0.6-1.1,0.6-1.8l1.6-0.2c0,1.3-0.4,2.3-1,3c-0.7,0.7-1.6,1.1-2.7,1.2c-1.3,0.1-2.4-0.2-3.3-1.1c-0.9-0.9-1.4-2-1.6-3.4
			c-0.2-1.7,0.1-3.1,0.8-4.2c0.7-1.1,1.7-1.7,3-1.8C113.8,41.5,114.8,41.7,115.5,42.1L115.5,42.1L115.5,42.1z"/>
		<path class="st2" d="M117.7,37.6l1.7-0.2l0.6,5.1c0.3-0.5,0.6-0.9,0.9-1.2c0.5-0.4,1.1-0.7,1.9-0.8c1.4-0.2,2.5,0.2,3.1,1.2
			c0.3,0.5,0.6,1.3,0.7,2.2l0.7,6.3l-1.7,0.2l-0.7-6.2c-0.1-0.7-0.2-1.2-0.5-1.6c-0.4-0.5-1-0.7-1.8-0.6c-0.7,0.1-1.3,0.4-1.8,0.9
			c-0.5,0.5-0.7,1.5-0.5,2.8l0.6,5.2l-1.7,0.2L117.7,37.6L117.7,37.6L117.7,37.6z"/>
		<path class="st2" d="M134.5,39.7c0.7,0.3,1.2,0.6,1.6,1.1c0.4,0.5,0.7,1,0.9,1.7c0.1,0.4,0.3,1.2,0.4,2.2l-7.2,0.8
			c0.1,1,0.5,1.8,1,2.3c0.5,0.6,1.2,0.8,2.1,0.7c0.9-0.1,1.5-0.5,2-1.1c0.2-0.4,0.4-0.8,0.5-1.2l1.6-0.2c0,0.4-0.1,0.8-0.3,1.3
			c-0.2,0.5-0.4,0.9-0.7,1.2c-0.4,0.6-1,1-1.7,1.2c-0.4,0.1-0.8,0.2-1.3,0.3c-1.2,0.1-2.3-0.2-3.3-1c-1-0.8-1.5-2-1.7-3.6
			c-0.2-1.6,0.1-2.9,0.8-4c0.7-1.1,1.8-1.7,3.2-1.9C133.1,39.3,133.8,39.4,134.5,39.7L134.5,39.7L134.5,39.7z M135.5,43.5
			c-0.1-0.7-0.4-1.3-0.7-1.7c-0.5-0.7-1.3-1.1-2.4-0.9c-0.8,0.1-1.4,0.4-1.8,1c-0.4,0.6-0.6,1.3-0.6,2.2L135.5,43.5L135.5,43.5
			L135.5,43.5z"/>
		<path class="st2" d="M138.6,38.9l1.6-0.2l0.2,1.4c0.4-0.6,0.8-1.1,1.3-1.4c0.5-0.3,1.1-0.5,1.7-0.6c1.4-0.2,2.4,0.2,3,1.1
			c0.3,0.5,0.6,1.3,0.7,2.2l0.7,6.3l-1.7,0.2l-0.7-6.2c-0.1-0.6-0.2-1.1-0.4-1.4c-0.4-0.6-0.9-0.8-1.7-0.7c-0.4,0-0.7,0.1-1,0.2
			c-0.4,0.2-0.8,0.5-1.1,1c-0.2,0.4-0.4,0.7-0.4,1.1c0,0.4,0,0.9,0,1.5l0.6,5.2l-1.7,0.2L138.6,38.9L138.6,38.9L138.6,38.9z"/>
		<path class="st2" d="M149.8,51.5c0.8-2,1.2-3.5,1.4-4.4c0.3-1.4,0.3-2.9,0.1-4.7c-0.2-1.8-0.6-3.4-1.3-4.8
			c-0.4-0.9-1.2-2.1-2.3-3.7l1.1-0.1c1.1,1.4,1.8,2.3,2,2.6c0.2,0.3,0.5,0.8,0.8,1.4c0.4,0.7,0.7,1.5,0.9,2.2
			c0.2,0.7,0.4,1.4,0.4,2.1c0.2,1.8,0.1,3.5-0.3,5c-0.3,1-0.9,2.4-1.8,4.3L149.8,51.5L149.8,51.5L149.8,51.5z"/>
	</g>
</g>
</svg>
